<svg aria-roledescription="flowchart-v2" role="graphics-document document" viewBox="-8 -8 527.58203125 1303.84375" style="max-width: 527.58203125px;" xmlns="http://www.w3.org/2000/svg" width="100%" id="mermaid-svg-1761580911692-uc7yt48i0"><style>#mermaid-svg-1761580911692-uc7yt48i0{font-family:"trebuchet ms",verdana,arial,sans-serif;font-size:16px;fill:rgba(228, 228, 228, 0.92);}#mermaid-svg-1761580911692-uc7yt48i0 .error-icon{fill:#141414;}#mermaid-svg-1761580911692-uc7yt48i0 .error-text{fill:#e34671;stroke:#e34671;}#mermaid-svg-1761580911692-uc7yt48i0 .edge-thickness-normal{stroke-width:2px;}#mermaid-svg-1761580911692-uc7yt48i0 .edge-thickness-thick{stroke-width:3.5px;}#mermaid-svg-1761580911692-uc7yt48i0 .edge-pattern-solid{stroke-dasharray:0;}#mermaid-svg-1761580911692-uc7yt48i0 .edge-pattern-dashed{stroke-dasharray:3;}#mermaid-svg-1761580911692-uc7yt48i0 .edge-pattern-dotted{stroke-dasharray:2;}#mermaid-svg-1761580911692-uc7yt48i0 .marker{fill:rgba(228, 228, 228, 0.92);stroke:rgba(228, 228, 228, 0.92);}#mermaid-svg-1761580911692-uc7yt48i0 .marker.cross{stroke:rgba(228, 228, 228, 0.92);}#mermaid-svg-1761580911692-uc7yt48i0 svg{font-family:"trebuchet ms",verdana,arial,sans-serif;font-size:16px;}#mermaid-svg-1761580911692-uc7yt48i0 .label{font-family:"trebuchet ms",verdana,arial,sans-serif;color:rgba(228, 228, 228, 0.92);}#mermaid-svg-1761580911692-uc7yt48i0 .cluster-label text{fill:rgba(228, 228, 228, 0.92);}#mermaid-svg-1761580911692-uc7yt48i0 .cluster-label span,#mermaid-svg-1761580911692-uc7yt48i0 p{color:rgba(228, 228, 228, 0.92);}#mermaid-svg-1761580911692-uc7yt48i0 .label text,#mermaid-svg-1761580911692-uc7yt48i0 span,#mermaid-svg-1761580911692-uc7yt48i0 p{fill:rgba(228, 228, 228, 0.92);color:rgba(228, 228, 228, 0.92);}#mermaid-svg-1761580911692-uc7yt48i0 .node rect,#mermaid-svg-1761580911692-uc7yt48i0 .node circle,#mermaid-svg-1761580911692-uc7yt48i0 .node ellipse,#mermaid-svg-1761580911692-uc7yt48i0 .node polygon,#mermaid-svg-1761580911692-uc7yt48i0 .node path{fill:#181818;stroke:rgba(228, 228, 228, 0.07);stroke-width:1px;}#mermaid-svg-1761580911692-uc7yt48i0 .flowchart-label text{text-anchor:middle;}#mermaid-svg-1761580911692-uc7yt48i0 .node .label{text-align:center;}#mermaid-svg-1761580911692-uc7yt48i0 .node.clickable{cursor:pointer;}#mermaid-svg-1761580911692-uc7yt48i0 .arrowheadPath{fill:#e7e7e7;}#mermaid-svg-1761580911692-uc7yt48i0 .edgePath .path{stroke:rgba(228, 228, 228, 0.92);stroke-width:2.0px;}#mermaid-svg-1761580911692-uc7yt48i0 .flowchart-link{stroke:rgba(228, 228, 228, 0.92);fill:none;}#mermaid-svg-1761580911692-uc7yt48i0 .edgeLabel{background-color:#18181899;text-align:center;}#mermaid-svg-1761580911692-uc7yt48i0 .edgeLabel rect{opacity:0.5;background-color:#18181899;fill:#18181899;}#mermaid-svg-1761580911692-uc7yt48i0 .labelBkg{background-color:rgba(24, 24, 24, 0.5);}#mermaid-svg-1761580911692-uc7yt48i0 .cluster rect{fill:rgba(64, 64, 64, 0.47);stroke:rgba(228, 228, 228, 0.15);stroke-width:1px;}#mermaid-svg-1761580911692-uc7yt48i0 .cluster text{fill:rgba(228, 228, 228, 0.92);}#mermaid-svg-1761580911692-uc7yt48i0 .cluster span,#mermaid-svg-1761580911692-uc7yt48i0 p{color:rgba(228, 228, 228, 0.92);}#mermaid-svg-1761580911692-uc7yt48i0 div.mermaidTooltip{position:absolute;text-align:center;max-width:200px;padding:2px;font-family:"trebuchet ms",verdana,arial,sans-serif;font-size:12px;background:#88c0d0;border:1px solid rgba(228, 228, 228, 0.15);border-radius:2px;pointer-events:none;z-index:100;}#mermaid-svg-1761580911692-uc7yt48i0 .flowchartTitleText{text-anchor:middle;font-size:18px;fill:rgba(228, 228, 228, 0.92);}#mermaid-svg-1761580911692-uc7yt48i0 :root{--mermaid-font-family:"trebuchet ms",verdana,arial,sans-serif;}</style><g><marker orient="auto" markerHeight="12" markerWidth="12" markerUnits="userSpaceOnUse" refY="5" refX="6" viewBox="0 0 10 10" class="marker flowchart" id="mermaid-svg-1761580911692-uc7yt48i0_flowchart-pointEnd"><path style="stroke-width: 1; stroke-dasharray: 1, 0;" class="arrowMarkerPath" d="M 0 0 L 10 5 L 0 10 z"/></marker><marker orient="auto" markerHeight="12" markerWidth="12" markerUnits="userSpaceOnUse" refY="5" refX="4.5" viewBox="0 0 10 10" class="marker flowchart" id="mermaid-svg-1761580911692-uc7yt48i0_flowchart-pointStart"><path style="stroke-width: 1; stroke-dasharray: 1, 0;" class="arrowMarkerPath" d="M 0 5 L 10 10 L 10 0 z"/></marker><marker orient="auto" markerHeight="11" markerWidth="11" markerUnits="userSpaceOnUse" refY="5" refX="11" viewBox="0 0 10 10" class="marker flowchart" id="mermaid-svg-1761580911692-uc7yt48i0_flowchart-circleEnd"><circle style="stroke-width: 1; stroke-dasharray: 1, 0;" class="arrowMarkerPath" r="5" cy="5" cx="5"/></marker><marker orient="auto" markerHeight="11" markerWidth="11" markerUnits="userSpaceOnUse" refY="5" refX="-1" viewBox="0 0 10 10" class="marker flowchart" id="mermaid-svg-1761580911692-uc7yt48i0_flowchart-circleStart"><circle style="stroke-width: 1; stroke-dasharray: 1, 0;" class="arrowMarkerPath" r="5" cy="5" cx="5"/></marker><marker orient="auto" markerHeight="11" markerWidth="11" markerUnits="userSpaceOnUse" refY="5.2" refX="12" viewBox="0 0 11 11" class="marker cross flowchart" id="mermaid-svg-1761580911692-uc7yt48i0_flowchart-crossEnd"><path style="stroke-width: 2; stroke-dasharray: 1, 0;" class="arrowMarkerPath" d="M 1,1 l 9,9 M 10,1 l -9,9"/></marker><marker orient="auto" markerHeight="11" markerWidth="11" markerUnits="userSpaceOnUse" refY="5.2" refX="-1" viewBox="0 0 11 11" class="marker cross flowchart" id="mermaid-svg-1761580911692-uc7yt48i0_flowchart-crossStart"><path style="stroke-width: 2; stroke-dasharray: 1, 0;" class="arrowMarkerPath" d="M 1,1 l 9,9 M 10,1 l -9,9"/></marker><g class="root"><g class="clusters"/><g class="edgePaths"><path marker-end="url(#mermaid-svg-1761580911692-uc7yt48i0_flowchart-pointEnd)" style="fill:none;" class="edge-thickness-normal edge-pattern-solid flowchart-link LS-A LE-B" id="L-A-B-0" d="M137.998,33.5L137.998,37.667C137.998,41.833,137.998,50.167,138.064,57.7C138.13,65.234,138.262,71.967,138.328,75.334L138.394,78.701"/><path marker-end="url(#mermaid-svg-1761580911692-uc7yt48i0_flowchart-pointEnd)" style="fill:none;" class="edge-thickness-normal edge-pattern-solid flowchart-link LS-B LE-C" id="L-B-C-0" d="M106.127,195.566L96.966,206.587C87.806,217.607,69.485,239.647,60.325,264.785C51.164,289.922,51.164,318.157,51.164,332.274L51.164,346.391"/><path marker-end="url(#mermaid-svg-1761580911692-uc7yt48i0_flowchart-pointEnd)" style="fill:none;" class="edge-thickness-normal edge-pattern-solid flowchart-link LS-B LE-D" id="L-B-D-0" d="M170.869,195.566L179.863,206.587C188.857,217.607,206.844,239.647,215.909,255.576C224.973,271.504,225.115,281.321,225.185,286.23L225.256,291.138"/><path marker-end="url(#mermaid-svg-1761580911692-uc7yt48i0_flowchart-pointEnd)" style="fill:none;" class="edge-thickness-normal edge-pattern-solid flowchart-link LS-D LE-E" id="L-D-E-0" d="M190.434,406.547L179.655,417.988C168.877,429.43,147.32,452.313,136.542,468.579C125.764,484.845,125.764,494.495,125.764,499.32L125.764,504.145"/><path marker-end="url(#mermaid-svg-1761580911692-uc7yt48i0_flowchart-pointEnd)" style="fill:none;" class="edge-thickness-normal edge-pattern-solid flowchart-link LS-E LE-F" id="L-E-F-0" d="M125.764,542.945L125.764,548.654C125.764,554.362,125.764,565.779,125.834,576.395C125.905,587.012,126.046,596.829,126.117,601.737L126.187,606.646"/><path marker-end="url(#mermaid-svg-1761580911692-uc7yt48i0_flowchart-pointEnd)" style="fill:none;" class="edge-thickness-normal edge-pattern-solid flowchart-link LS-F LE-G" id="L-F-G-0" d="M112.207,810.131L110.895,818.099C109.582,826.067,106.957,842.002,105.645,854.795C104.332,867.588,104.332,877.238,104.332,882.063L104.332,886.888"/><path marker-end="url(#mermaid-svg-1761580911692-uc7yt48i0_flowchart-pointEnd)" style="fill:none;" class="edge-thickness-normal edge-pattern-solid flowchart-link LS-F LE-H" id="L-F-H-0" d="M175.282,775.169L187.113,788.963C198.943,802.758,222.603,830.348,244.737,849.447C266.87,868.546,287.476,879.154,297.779,884.458L308.083,889.762"/><path marker-end="url(#mermaid-svg-1761580911692-uc7yt48i0_flowchart-pointEnd)" style="fill:none;" class="edge-thickness-normal edge-pattern-solid flowchart-link LS-D LE-H" id="L-D-H-0" d="M265.861,400.916L281.576,413.296C297.29,425.676,328.719,450.436,344.434,471.315C360.148,492.195,360.148,509.195,360.148,526.195C360.148,543.195,360.148,560.195,360.148,592.09C360.148,623.986,360.148,670.776,360.148,717.566C360.148,764.357,360.148,811.147,358.737,839.402C357.325,867.658,354.501,877.378,353.089,882.238L351.677,887.098"/><path marker-end="url(#mermaid-svg-1761580911692-uc7yt48i0_flowchart-pointEnd)" style="fill:none;" class="edge-thickness-normal edge-pattern-solid flowchart-link LS-H LE-I" id="L-H-I-0" d="M345.332,925.688L345.332,929.854C345.332,934.021,345.332,942.354,345.332,949.804C345.332,957.254,345.332,963.821,345.332,967.104L345.332,970.388"/><path marker-end="url(#mermaid-svg-1761580911692-uc7yt48i0_flowchart-pointEnd)" style="fill:none;" class="edge-thickness-normal edge-pattern-solid flowchart-link LS-I LE-J" id="L-I-J-0" d="M345.332,1009.188L345.332,1013.354C345.332,1017.521,345.332,1025.854,345.398,1033.388C345.464,1040.921,345.596,1047.655,345.662,1051.022L345.728,1054.389"/><path marker-end="url(#mermaid-svg-1761580911692-uc7yt48i0_flowchart-pointEnd)" style="fill:none;" class="edge-thickness-normal edge-pattern-solid flowchart-link LS-J LE-K" id="L-J-K-0" d="M313.889,1154.401L302.577,1165.35C291.266,1176.298,268.643,1198.196,257.331,1213.97C246.02,1229.744,246.02,1239.394,246.02,1244.219L246.02,1249.044"/><path marker-end="url(#mermaid-svg-1761580911692-uc7yt48i0_flowchart-pointEnd)" style="fill:none;" class="edge-thickness-normal edge-pattern-solid flowchart-link LS-J LE-L" id="L-J-L-0" d="M377.775,1154.401L388.92,1165.35C400.065,1176.298,422.355,1198.196,433.5,1213.97C444.645,1229.744,444.645,1239.394,444.645,1244.219L444.645,1249.044"/></g><g class="edgeLabels"><g class="edgeLabel"><g transform="translate(0, 0)" class="label"><rect height="0" width="0" ry="0" rx="0"/><text style=""><tspan class="row" x="0" dy="1em" xml:space="preserve"/></text></g></g><g transform="translate(51.1640625, 261.6875)" class="edgeLabel"><g transform="translate(-13.23046875, -9.25)" class="label"><rect height="18.50022315979004" width="26.45344352722168" ry="0" rx="0"/><text style=""><tspan class="row" x="0" dy="1em" xml:space="preserve">Нет</tspan></text></g></g><g transform="translate(224.83203125, 261.6875)" class="edgeLabel"><g transform="translate(-9.6328125, -9.25)" class="label"><rect height="18.50022315979004" width="19.265857696533203" ry="0" rx="0"/><text style=""><tspan class="row" x="0" dy="1em" xml:space="preserve">Да</tspan></text></g></g><g transform="translate(125.763671875, 475.1953125)" class="edgeLabel"><g transform="translate(-9.6328125, -9.25)" class="label"><rect height="18.50022315979004" width="19.265857696533203" ry="0" rx="0"/><text style=""><tspan class="row" x="0" dy="1em" xml:space="preserve">Да</tspan></text></g></g><g class="edgeLabel"><g transform="translate(0, 0)" class="label"><rect height="0" width="0" ry="0" rx="0"/><text style=""><tspan class="row" x="0" dy="1em" xml:space="preserve"/></text></g></g><g transform="translate(104.33203125, 857.9375)" class="edgeLabel"><g transform="translate(-13.23046875, -9.25)" class="label"><rect height="18.50022315979004" width="26.45344352722168" ry="0" rx="0"/><text style=""><tspan class="row" x="0" dy="1em" xml:space="preserve">Нет</tspan></text></g></g><g transform="translate(246.263671875, 857.9375)" class="edgeLabel"><g transform="translate(-9.6328125, -9.25)" class="label"><rect height="18.50022315979004" width="19.265857696533203" ry="0" rx="0"/><text style=""><tspan class="row" x="0" dy="1em" xml:space="preserve">Да</tspan></text></g></g><g transform="translate(360.1484375, 577.1953125)" class="edgeLabel"><g transform="translate(-13.23046875, -9.25)" class="label"><rect height="18.50022315979004" width="26.45344352722168" ry="0" rx="0"/><text style=""><tspan class="row" x="0" dy="1em" xml:space="preserve">Нет</tspan></text></g></g><g class="edgeLabel"><g transform="translate(0, 0)" class="label"><rect height="0" width="0" ry="0" rx="0"/><text style=""><tspan class="row" x="0" dy="1em" xml:space="preserve"/></text></g></g><g class="edgeLabel"><g transform="translate(0, 0)" class="label"><rect height="0" width="0" ry="0" rx="0"/><text style=""><tspan class="row" x="0" dy="1em" xml:space="preserve"/></text></g></g><g transform="translate(246.01953125, 1220.09375)" class="edgeLabel"><g transform="translate(-9.6328125, -9.25)" class="label"><rect height="18.50022315979004" width="19.265857696533203" ry="0" rx="0"/><text style=""><tspan class="row" x="0" dy="1em" xml:space="preserve">Да</tspan></text></g></g><g transform="translate(444.64453125, 1220.09375)" class="edgeLabel"><g transform="translate(-13.23046875, -9.25)" class="label"><rect height="18.50022315979004" width="26.45344352722168" ry="0" rx="0"/><text style=""><tspan class="row" x="0" dy="1em" xml:space="preserve">Нет</tspan></text></g></g></g><g class="nodes"><g transform="translate(137.998046875, 16.75)" id="flowchart-A-84" class="node default default flowchart-label"><rect height="33.5" width="125.078125" y="-16.75" x="-62.5390625" ry="0" rx="0" style="" class="basic label-container"/><g transform="translate(0, -9.25)" style="" class="label"><rect/><text style=""><tspan class="row" x="0" dy="1em" xml:space="preserve">Запрос данных</tspan></text></g></g><g transform="translate(137.998046875, 155.46875)" id="flowchart-B-85" class="node default default flowchart-label"><polygon style="" transform="translate(-71.96875,71.96875)" class="label-container" points="71.96875,0 143.9375,-71.96875 71.96875,-143.9375 0,-71.96875"/><g transform="translate(0, -9.25)" style="" class="label"><rect/><text style=""><tspan class="row" x="0" dy="1em" xml:space="preserve">Есть токены?</tspan></text></g></g><g transform="translate(51.1640625, 368.44140625)" id="flowchart-C-87" class="node default default flowchart-label"><rect height="33.5" width="102.328125" y="-16.75" x="-51.1640625" ry="0" rx="0" style="" class="basic label-container"/><g transform="translate(0, -9.25)" style="" class="label"><rect/><text style=""><tspan class="row" x="0" dy="1em" xml:space="preserve">Ошибка 401</tspan></text></g></g><g transform="translate(224.83203125, 368.44140625)" id="flowchart-D-89" class="node default default flowchart-label"><polygon style="" transform="translate(-72.50390625,72.50390625)" class="label-container" points="72.50390625,0 145.0078125,-72.50390625 72.50390625,-145.0078125 0,-72.50390625"/><g transform="translate(0, -9.25)" style="" class="label"><rect/><text style=""><tspan class="row" x="0" dy="1em" xml:space="preserve">Токен истек?</tspan></text></g></g><g transform="translate(125.763671875, 526.1953125)" id="flowchart-E-91" class="node default default flowchart-label"><rect height="33.5" width="131.5" y="-16.75" x="-65.75" ry="0" rx="0" style="" class="basic label-container"/><g transform="translate(0, -9.25)" style="" class="label"><rect/><text style=""><tspan class="row" x="0" dy="1em" xml:space="preserve">Обновить токен</tspan></text></g></g><g transform="translate(125.763671875, 717.56640625)" id="flowchart-F-93" class="node default default flowchart-label"><polygon style="" transform="translate(-106.12109375,106.12109375)" class="label-container" points="106.12109375,0 212.2421875,-106.12109375 106.12109375,-212.2421875 0,-106.12109375"/><g transform="translate(0, -9.25)" style="" class="label"><rect/><text style=""><tspan class="row" x="0" dy="1em" xml:space="preserve">Обновление успешно?</tspan></text></g></g><g transform="translate(104.33203125, 908.9375)" id="flowchart-G-95" class="node default default flowchart-label"><rect height="33.5" width="163.375" y="-16.75" x="-81.6875" ry="0" rx="0" style="" class="basic label-container"/><g transform="translate(0, -9.25)" style="" class="label"><rect/><text style=""><tspan class="row" x="0" dy="1em" xml:space="preserve">Очистить auth + 401</tspan></text></g></g><g transform="translate(345.33203125, 908.9375)" id="flowchart-H-97" class="node default default flowchart-label"><rect height="33.5" width="218.625" y="-16.75" x="-109.3125" ry="0" rx="0" style="" class="basic label-container"/><g transform="translate(0, -9.25)" style="" class="label"><rect/><text style=""><tspan class="row" x="0" dy="1em" xml:space="preserve">Получить валидные токены</tspan></text></g></g><g transform="translate(345.33203125, 992.4375)" id="flowchart-I-101" class="node default default flowchart-label"><rect height="33.5" width="143.625" y="-16.75" x="-71.8125" ry="0" rx="0" style="" class="basic label-container"/><g transform="translate(0, -9.25)" style="" class="label"><rect/><text style=""><tspan class="row" x="0" dy="1em" xml:space="preserve">Запрос к бэкенду</tspan></text></g></g><g transform="translate(345.33203125, 1122.515625)" id="flowchart-J-103" class="node default default flowchart-label"><polygon style="" transform="translate(-63.328125,63.328125)" class="label-container" points="63.328125,0 126.65625,-63.328125 63.328125,-126.65625 0,-63.328125"/><g transform="translate(0, -9.25)" style="" class="label"><rect/><text style=""><tspan class="row" x="0" dy="1em" xml:space="preserve">Ответ 401?</tspan></text></g></g><g transform="translate(246.01953125, 1271.09375)" id="flowchart-K-105" class="node default default flowchart-label"><rect height="33.5" width="163.375" y="-16.75" x="-81.6875" ry="0" rx="0" style="" class="basic label-container"/><g transform="translate(0, -9.25)" style="" class="label"><rect/><text style=""><tspan class="row" x="0" dy="1em" xml:space="preserve">Очистить auth + 401</tspan></text></g></g><g transform="translate(444.64453125, 1271.09375)" id="flowchart-L-107" class="node default default flowchart-label"><rect height="33.5" width="133.875" y="-16.75" x="-66.9375" ry="0" rx="0" style="" class="basic label-container"/><g transform="translate(0, -9.25)" style="" class="label"><rect/><text style=""><tspan class="row" x="0" dy="1em" xml:space="preserve">Вернуть данные</tspan></text></g></g></g></g></g></svg>